<svg width="18" height="18" viewBox="0 0 18 18" fill="none" xmlns="http://www.w3.org/2000/svg">
<path d="M15 9.99805H10V14.998C10 15.2633 9.89464 15.5176 9.70711 15.7052C9.51957 15.8927 9.26522 15.998 9 15.998C8.73478 15.998 8.48043 15.8927 8.29289 15.7052C8.10536 15.5176 8 15.2633 8 14.998V9.99805H3C2.73478 9.99805 2.48043 9.89269 2.29289 9.70515C2.10536 9.51762 2 9.26326 2 8.99805C2 8.73283 2.10536 8.47848 2.29289 8.29094C2.48043 8.1034 2.73478 7.99805 3 7.99805H8V2.99805C8 2.73283 8.10536 2.47848 8.29289 2.29094C8.48043 2.1034 8.73478 1.99805 9 1.99805C9.26522 1.99805 9.51957 2.1034 9.70711 2.29094C9.89464 2.47848 10 2.73283 10 2.99805V7.99805H15C15.2652 7.99805 15.5196 8.1034 15.7071 8.29094C15.8946 8.47848 16 8.73283 16 8.99805C16 9.26326 15.8946 9.51762 15.7071 9.70515C15.5196 9.89269 15.2652 9.99805 15 9.99805Z" fill="black"/>
</svg>
