<svg xmlns="http://www.w3.org/2000/svg" width="17.063" height="19.5" viewBox="0 0 17.063 19.5">
  <path id="Icon_awesome-calendar-alt" data-name="Icon awesome-calendar-alt" d="M0,17.672A1.829,1.829,0,0,0,1.828,19.5H15.234a1.829,1.829,0,0,0,1.828-1.828V7.313H0Zm12.188-7.465a.458.458,0,0,1,.457-.457h1.523a.458.458,0,0,1,.457.457V11.73a.458.458,0,0,1-.457.457H12.645a.458.458,0,0,1-.457-.457Zm0,4.875a.458.458,0,0,1,.457-.457h1.523a.458.458,0,0,1,.457.457v1.523a.458.458,0,0,1-.457.457H12.645a.458.458,0,0,1-.457-.457ZM7.313,10.207A.458.458,0,0,1,7.77,9.75H9.293a.458.458,0,0,1,.457.457V11.73a.458.458,0,0,1-.457.457H7.77a.458.458,0,0,1-.457-.457Zm0,4.875a.458.458,0,0,1,.457-.457H9.293a.458.458,0,0,1,.457.457v1.523a.458.458,0,0,1-.457.457H7.77a.458.458,0,0,1-.457-.457ZM2.438,10.207a.458.458,0,0,1,.457-.457H4.418a.458.458,0,0,1,.457.457V11.73a.458.458,0,0,1-.457.457H2.895a.458.458,0,0,1-.457-.457Zm0,4.875a.458.458,0,0,1,.457-.457H4.418a.458.458,0,0,1,.457.457v1.523a.458.458,0,0,1-.457.457H2.895a.458.458,0,0,1-.457-.457Zm12.8-12.645H13.406V.609A.611.611,0,0,0,12.8,0H11.578a.611.611,0,0,0-.609.609V2.438H6.094V.609A.611.611,0,0,0,5.484,0H4.266a.611.611,0,0,0-.609.609V2.438H1.828A1.829,1.829,0,0,0,0,4.266V6.094H17.063V4.266A1.829,1.829,0,0,0,15.234,2.438Z" fill="#a6b1c2"/>
</svg>
