<svg xmlns="http://www.w3.org/2000/svg" width="15.96" height="21" viewBox="0 0 15.96 21">
  <g id="Icon_ionic-ios-document" data-name="Icon ionic-ios-document" transform="translate(-7.313 -3.938)">
    <path id="Path_336" data-name="Path 336" d="M21.6,9.137h4.778a.26.26,0,0,0,.262-.262h0a1.554,1.554,0,0,0-.562-1.2L22.072,4.333a1.686,1.686,0,0,0-1.081-.389h0a.388.388,0,0,0-.389.389V8.139A1,1,0,0,0,21.6,9.137Z" transform="translate(-3.367 -0.002)" fill="#384955"/>
    <path id="Path_337" data-name="Path 337" d="M15.87,8.137v-4.2H8.993a1.685,1.685,0,0,0-1.68,1.68v17.64a1.685,1.685,0,0,0,1.68,1.68h12.6a1.685,1.685,0,0,0,1.68-1.68V10.5h-5.04A2.366,2.366,0,0,1,15.87,8.137Z" fill="#384955"/>
  </g>
</svg>
