<svg xmlns="http://www.w3.org/2000/svg" width="32.214" height="28.7" viewBox="0 0 32.214 28.7">
  <g id="post-it-post-it-svgrepo-com" transform="translate(0 -27.923)">
    <g id="Group_115" data-name="Group 115" transform="translate(0 27.923)">
      <path id="Path_317" data-name="Path 317" d="M32.167,36.607a6.686,6.686,0,0,0-.813-2.113,6.482,6.482,0,0,0-1.582-1.9V30.119a2.2,2.2,0,0,0-2.2-2.2H7.688a2.2,2.2,0,0,0-2.2,2.2v.014h-.55a2.2,2.2,0,0,0-2.2,2.2v.014H2.2a2.2,2.2,0,0,0-2.2,2.2V54.427a2.2,2.2,0,0,0,2.2,2.2H22.084a2.2,2.2,0,0,0,2.2-2.2v-.014h.55a2.2,2.2,0,0,0,2.2-2.2V52.2h.55a2.2,2.2,0,0,0,2.2-2.2V39.369l1.9-1.091h0C31.936,38.126,32.353,37.706,32.167,36.607ZM23.2,54.427h0a1.119,1.119,0,0,1-1.118,1.118H2.2a1.119,1.119,0,0,1-1.118-1.118V34.539A1.119,1.119,0,0,1,2.2,33.422h.55v18.8a2.2,2.2,0,0,0,2.2,2.2H23.2v.014Zm2.746-2.21h0a1.119,1.119,0,0,1-1.118,1.118H4.942a1.119,1.119,0,0,1-1.118-1.118V32.329a1.119,1.119,0,0,1,1.118-1.117h.55v18.8a2.2,2.2,0,0,0,2.2,2.2H25.947Zm2.746-2.21a1.119,1.119,0,0,1-1.118,1.117H7.688a1.119,1.119,0,0,1-1.03-.683c-.014-.033-.027-.068-.038-.1a1.112,1.112,0,0,1-.05-.332V30.119A1.119,1.119,0,0,1,7.688,29H27.576a1.119,1.119,0,0,1,1.118,1.118v2.068l-.045,0a3.07,3.07,0,0,0-1.133.542l-1.227.7-2.455,1.41-.356.2-.1.055-.007,0a2.3,2.3,0,0,0-1.282-.486,1.205,1.205,0,0,0-.609.157c-.941.54-.815,2.125-.162,3.752l-.842.483V37.734a.539.539,0,1,0-1.079,0v5.954a.539.539,0,1,0,1.079,0V42.461l2.33-1.338c.83,1.065,1.837,1.909,2.712,1.909a1.205,1.205,0,0,0,.609-.157,1.815,1.815,0,0,0,.668-1.8l1.894-1.088V50.007ZM22.021,35.718a.148.148,0,0,1,.071-.014,1.02,1.02,0,0,1,.479.172l0,.009a3.259,3.259,0,0,0,.252,2.131,8.061,8.061,0,0,0,1.23,2.119,3.294,3.294,0,0,0,1.616,1.234l.042.009.025.006c0,.349-.083.522-.14.555a.148.148,0,0,1-.072.014c-.376,0-1.24-.585-2.113-1.827l-.011-.018c-.126-.18-.248-.367-.363-.557l-.011-.017q-.054-.089-.105-.178l-.007-.012-.011-.02c-.146-.256-.282-.52-.4-.785l-.009-.016C21.76,36.938,21.8,35.847,22.021,35.718Zm.168,4.517-1.709.981v-.955l1.3-.745.01.018q.092.174.189.344c.063.11.129.219.2.328Zm6.775-1.646-3.011,1.729-.014.008-.017,0h-.005l-.014,0-.011,0-.02-.007-.008,0-.017-.007-.014-.006,0,0a1.264,1.264,0,0,1-.186-.107l0,0a2.755,2.755,0,0,1-.294-.236l0,0a5.927,5.927,0,0,1-1.252-1.726,4.416,4.416,0,0,1-.53-1.656,1.2,1.2,0,0,1,0-.221.364.364,0,0,1,.026-.106l4.145-2.38,0,.011a6.05,6.05,0,0,0,.826,2.265,6.574,6.574,0,0,0,1.5,1.8l.021.017Zm2.155-1.272-.047-.017-.008,0a2.727,2.727,0,0,1-.825-.707A5.932,5.932,0,0,1,29,34.466a2.752,2.752,0,0,1-.215-1.133v-.006a.476.476,0,0,1,.009-.05.825.825,0,0,1,.168.077,4.7,4.7,0,0,1,1.454,1.678A3.921,3.921,0,0,1,31.119,37.317Z" transform="translate(0 -27.923)" fill="#fff"/>
    </g>
  </g>
</svg>
