<svg xmlns="http://www.w3.org/2000/svg" width="32.954" height="28.3" viewBox="0 0 32.954 28.3">
  <g id="order-svgrepo-com" transform="translate(0 -35.446)">
    <g id="Group_103" data-name="Group 103" transform="translate(12.403 43.002)">
      <g id="Group_102" data-name="Group 102" transform="translate(0 0)">
        <path id="Path_303" data-name="Path 303" d="M206.684,156.162H191.74a2.8,2.8,0,1,1,0-5.607h14.944a2.8,2.8,0,0,1,0,5.607Zm-14.944-4.294a1.491,1.491,0,1,0,0,2.981h14.944a1.491,1.491,0,0,0,0-2.981Z" transform="translate(-188.937 -150.555)" fill="#fff"/>
      </g>
    </g>
    <g id="Group_105" data-name="Group 105" transform="translate(0 50.571)">
      <g id="Group_104" data-name="Group 104">
        <path id="Path_304" data-name="Path 304" d="M30.15,271.454H2.8a2.8,2.8,0,0,1,0-5.607H30.15a2.8,2.8,0,0,1,0,5.607ZM2.8,267.16a1.491,1.491,0,0,0,0,2.981H30.15a1.491,1.491,0,0,0,0-2.981Z" transform="translate(0 -265.847)" fill="#fff"/>
      </g>
    </g>
    <g id="Group_107" data-name="Group 107" transform="translate(12.403 35.447)">
      <g id="Group_106" data-name="Group 106" transform="translate(0 0)">
        <path id="Path_305" data-name="Path 305" d="M206.684,41.068H191.74a2.8,2.8,0,1,1,0-5.607h14.944a2.8,2.8,0,0,1,0,5.607ZM191.74,36.774a1.491,1.491,0,1,0,0,2.981h14.944a1.491,1.491,0,0,0,0-2.981Z" transform="translate(-188.937 -35.461)" fill="#fff"/>
      </g>
    </g>
    <g id="Group_109" data-name="Group 109" transform="translate(0 58.139)">
      <g id="Group_108" data-name="Group 108" transform="translate(0 0)">
        <path id="Path_306" data-name="Path 306" d="M30.15,386.747H2.8a2.8,2.8,0,0,1,0-5.607H30.15a2.8,2.8,0,0,1,0,5.607ZM2.8,382.453a1.491,1.491,0,0,0,0,2.981H30.15a1.491,1.491,0,0,0,0-2.981Z" transform="translate(0 -381.14)" fill="#fff"/>
      </g>
    </g>
    <g id="Group_110" data-name="Group 110" transform="translate(14.669 37.355)">
      <path id="Path_307" data-name="Path 307" d="M229.133,65.834h-5.014a.656.656,0,0,1,0-1.313h5.014a.656.656,0,0,1,0,1.313Z" transform="translate(-223.463 -64.521)" fill="#fff"/>
    </g>
    <g id="Group_111" data-name="Group 111" transform="translate(21.83 37.355)">
      <path id="Path_308" data-name="Path 308" d="M334.118,65.834h-.913a.656.656,0,0,1,0-1.313h.913a.656.656,0,0,1,0,1.313Z" transform="translate(-332.549 -64.521)" fill="#fff"/>
    </g>
    <g id="Group_114" data-name="Group 114" transform="translate(0.863 35.446)">
      <g id="Group_112" data-name="Group 112" transform="translate(4.602 0)">
        <path id="Path_309" data-name="Path 309" d="M83.9,45.25a.656.656,0,0,1-.656-.656V36.1a.656.656,0,0,1,1.313,0v8.491A.656.656,0,0,1,83.9,45.25Z" transform="translate(-83.241 -35.446)" fill="#fff"/>
      </g>
      <g id="Group_113" data-name="Group 113" transform="translate(0 7.24)">
        <path id="Path_310" data-name="Path 310" d="M18.4,151.649a.654.654,0,0,1-.464-.192l-4.6-4.6a.656.656,0,1,1,.928-.928l4.138,4.138,4.138-4.138a.656.656,0,0,1,.928.928l-4.6,4.6A.655.655,0,0,1,18.4,151.649Z" transform="translate(-13.141 -145.734)" fill="#fff"/>
      </g>
    </g>
  </g>
</svg>
