<svg xmlns="http://www.w3.org/2000/svg" width="32.96" height="32.959" viewBox="0 0 32.96 32.959">
  <g id="cancel-button-svgrepo-com" transform="translate(0 -0.001)">
    <g id="c131_X" transform="translate(0 0.001)">
      <path id="Path_311" data-name="Path 311" d="M16.479,0A16.479,16.479,0,1,0,32.96,16.479,16.477,16.477,0,0,0,16.479,0Zm0,31.274a14.794,14.794,0,1,1,14.8-14.8A14.8,14.8,0,0,1,16.479,31.275Z" transform="translate(0 -0.001)" fill="#fff"/>
      <path id="Path_312" data-name="Path 312" d="M19.992,10.2,17.764,7.971s-3.552,3.783-3.783,3.783S10.2,7.971,10.2,7.971L7.969,10.2a43.038,43.038,0,0,1,3.783,3.787A43.4,43.4,0,0,1,7.969,17.77L10.2,19.994a51.73,51.73,0,0,1,3.785-3.782,51.689,51.689,0,0,1,3.783,3.782l2.229-2.224a53.366,53.366,0,0,1-3.785-3.784A51.608,51.608,0,0,1,19.992,10.2Z" transform="translate(2.498 2.498)" fill="#fff"/>
    </g>
  </g>
</svg>
