<svg xmlns="http://www.w3.org/2000/svg" width="37.175" height="37.175" viewBox="0 0 37.175 37.175">
  <g id="Icon_ionic-ios-chatbubbles" data-name="Icon ionic-ios-chatbubbles" transform="translate(-3.375 -3.375)">
    <path id="Path_318" data-name="Path 318" d="M36.3,27.735a2.165,2.165,0,0,1,.295-1.09,3.01,3.01,0,0,1,.188-.277A14.48,14.48,0,0,0,39.249,18.3c.027-8.239-6.926-14.924-15.522-14.924A15.415,15.415,0,0,0,8.508,15.251a14.361,14.361,0,0,0-.331,3.056A15.159,15.159,0,0,0,23.458,33.419a18.4,18.4,0,0,0,4.218-.688c1.01-.277,2.011-.643,2.27-.742a2.363,2.363,0,0,1,.831-.152,2.323,2.323,0,0,1,.9.179l5.067,1.8a1.208,1.208,0,0,0,.349.089.711.711,0,0,0,.715-.715,1.148,1.148,0,0,0-.045-.241Z" transform="translate(1.301 0)" fill="#fff"/>
    <path id="Path_319" data-name="Path 319" d="M27.548,31.579c-.322.089-.733.188-1.18.286a16.493,16.493,0,0,1-3.038.4A15.159,15.159,0,0,1,8.049,17.156a16.9,16.9,0,0,1,.134-1.912c.054-.384.116-.769.206-1.144.089-.4.2-.8.313-1.2l-.715.634a13.3,13.3,0,0,0-4.611,10,13.151,13.151,0,0,0,2.216,7.328c.206.313.322.554.286.715S4.814,37.12,4.814,37.12a.717.717,0,0,0,.241.688.728.728,0,0,0,.456.161.641.641,0,0,0,.259-.054l5.013-1.975a1.4,1.4,0,0,1,1.072.018A15.04,15.04,0,0,0,17.28,37.03a14.035,14.035,0,0,0,10.732-4.924s.286-.393.617-.858C28.3,31.365,27.923,31.481,27.548,31.579Z" transform="translate(0 2.581)" fill="#fff"/>
  </g>
</svg>
