<svg xmlns="http://www.w3.org/2000/svg" width="22.857" height="16" viewBox="0 0 22.857 16">
  <path id="Icon_awesome-users" data-name="Icon awesome-users" d="M3.429,9.107A2.286,2.286,0,1,0,1.143,6.821,2.286,2.286,0,0,0,3.429,9.107Zm16,0a2.286,2.286,0,1,0-2.286-2.286A2.286,2.286,0,0,0,19.429,9.107Zm1.143,1.143H18.286a2.279,2.279,0,0,0-1.611.664,5.224,5.224,0,0,1,2.682,3.907h2.357a1.142,1.142,0,0,0,1.143-1.143V12.536a2.288,2.288,0,0,0-2.286-2.286Zm-9.143,0a4,4,0,1,0-4-4,4,4,0,0,0,4,4Zm2.743,1.143h-.3a5.523,5.523,0,0,1-4.893,0h-.3a4.115,4.115,0,0,0-4.114,4.113v1.03A1.715,1.715,0,0,0,6.286,18.25H16.571a1.715,1.715,0,0,0,1.714-1.714V15.507a4.115,4.115,0,0,0-4.113-4.114Zm-7.989-.479a2.279,2.279,0,0,0-1.611-.664H2.286A2.288,2.288,0,0,0,0,12.536v1.143a1.142,1.142,0,0,0,1.143,1.143H3.5a5.237,5.237,0,0,1,2.682-3.908Z" transform="translate(0 -2.25)" fill="#384955"/>
</svg>
