<svg xmlns="http://www.w3.org/2000/svg" width="26.25" height="26.25" viewBox="0 0 26.25 26.25">
  <g id="Icon_ionic-ios-information-circle-outline" data-name="Icon ionic-ios-information-circle-outline" transform="translate(-3.375 -3.375)">
    <path id="Path_299" data-name="Path 299" d="M16.552,12.008a1.457,1.457,0,0,1,2.9,0,1.456,1.456,0,0,1-2.9,0Zm.1,2.331h2.686v9.41H16.65Z" transform="translate(-1.5 -0.964)" fill="#3299cc"/>
    <path id="Path_300" data-name="Path 300" d="M16.5,5.142A11.354,11.354,0,1,1,8.467,8.467,11.283,11.283,0,0,1,16.5,5.142m0-1.767A13.125,13.125,0,1,0,29.625,16.5,13.123,13.123,0,0,0,16.5,3.375Z" transform="translate(0 0)" fill="#3299cc"/>
  </g>
</svg>
