<svg xmlns="http://www.w3.org/2000/svg" width="17" height="17" viewBox="0 0 17 17">
  <g id="Group_121" data-name="Group 121" transform="translate(-7650 99.396)">
    <path id="Path_324" data-name="Path 324" d="M19.154,5.929v9.03a2.409,2.409,0,0,1-1.528,2.236l-4.245,1.634a2.485,2.485,0,0,1-.849.172,2.792,2.792,0,0,1-1.358-.43c-.17-.172-.424-.344-.509-.516H7.438a2.388,2.388,0,0,1-2.377-2.408v-.86A.674.674,0,0,1,5.74,14.1a.629.629,0,0,1,.679.688v.86a1.039,1.039,0,0,0,1.019,1.032h2.8V4.3h-2.8A.987.987,0,0,0,6.42,5.327v.86a.679.679,0,1,1-1.358,0v-.86A2.389,2.389,0,0,1,7.438,2.919h3.226l.509-.516a2.5,2.5,0,0,1,2.207-.258l4.245,1.634A2.33,2.33,0,0,1,19.154,5.929Z" transform="translate(7647.847 -101.396)" fill="#b1b6c0"/>
    <path id="Path_325" data-name="Path 325" d="M4.714,14.542a.744.744,0,0,1-.485-.192L2.291,12.428c-.1-.1-.1-.192-.194-.192,0-.1-.1-.192-.1-.288a.351.351,0,0,1,.1-.288.208.208,0,0,1,.194-.192L4.23,9.545a.765.765,0,0,1,1.066,0,.75.75,0,0,1,0,1.057l-.679.673H8.592a.761.761,0,0,1,.776.769c0,.481-.388.577-.776.577H4.52l.679.673a.721.721,0,0,1-.485,1.249Z" transform="translate(7648 -102.773)" fill="#b1b6c0"/>
  </g>
</svg>
