<svg id="new-svgrepo-com" xmlns="http://www.w3.org/2000/svg" width="32.5" height="32.5" viewBox="0 0 32.5 32.5">
  <path id="Path_313" data-name="Path 313" d="M27.741,11.49V4.759H21.009L16.25,0,11.491,4.759H4.759V11.49L0,16.25l4.759,4.759V27.74h6.731L16.25,32.5l4.759-4.76h6.731V21.009L32.5,16.25Zm-1.359,8.956v5.935H20.447l-4.2,4.2-4.2-4.2H6.118V20.447l-4.2-4.2,4.2-4.2V6.118h5.935l4.2-4.2,4.2,4.2h5.935v5.935l4.2,4.2Z" fill="#fff"/>
  <path id="Path_314" data-name="Path 314" d="M108.971,200.45l-2.744-3.6H105.06v5.591h1.248v-3.5l2.664,3.5h1.248v-5.591h-1.248Z" transform="translate(-98.092 -183.795)" fill="#fff"/>
  <path id="Path_315" data-name="Path 315" d="M204.835,200.178h2.5v-1.064h-2.5v-1.152h2.783v-1.112h-4.031v5.591h4.119v-1.1h-2.871Z" transform="translate(-190.084 -183.795)" fill="#fff"/>
  <path id="Path_316" data-name="Path 316" d="M277.459,200.066l-.984-3.215h-1.3l-.992,3.215-1.1-3.215h-1.352l1.952,5.591h.928l1.216-3.887,1.224,3.887h.928l1.952-5.591h-1.352Z" transform="translate(-253.701 -183.795)" fill="#fff"/>
</svg>
