<svg xmlns="http://www.w3.org/2000/svg" width="32.299" height="32.299" viewBox="0 0 32.299 32.299">
  <g id="_-Product-Icons" data-name="ðŸ”-Product-Icons" transform="translate(142 -233)">
    <g id="ic_fluent_shifts_pending_24_regular" transform="translate(-142 233)">
      <path id="_-Color" data-name="ðŸŽ¨-Color" d="M9.882,17.535A8.882,8.882,0,1,1,1,26.417,8.882,8.882,0,0,1,9.882,17.535Zm0,12.726a1.009,1.009,0,1,0,1.009,1.009A1.009,1.009,0,0,0,9.882,30.261ZM28.051,3A5.249,5.249,0,0,1,33.3,8.249V26.821a5.249,5.249,0,0,1-5.249,5.249l-9.323,0a10.447,10.447,0,0,0,1.145-2.424h8.178a2.826,2.826,0,0,0,2.826-2.826V8.249a2.826,2.826,0,0,0-2.826-2.826H9.479A2.826,2.826,0,0,0,6.652,8.249v8.178a10.449,10.449,0,0,0-2.424,1.145l0-9.323A5.249,5.249,0,0,1,9.479,3ZM9.882,20.77a2.987,2.987,0,0,0-2.993,3.156A.807.807,0,1,0,8.5,23.91a1.377,1.377,0,0,1,1.378-1.526,1.428,1.428,0,0,1,1.378,1.533,1.581,1.581,0,0,1-.513,1.094l-.16.183-.429.469a3.2,3.2,0,0,0-1.084,2.37.807.807,0,0,0,1.615,0,1.613,1.613,0,0,1,.523-1.121l.163-.187.429-.469a3.168,3.168,0,0,0,1.071-2.338A3.039,3.039,0,0,0,9.882,20.77ZM18.361,7.845a1.212,1.212,0,0,1,1.2,1.047l.011.164v8.479h6.053a1.211,1.211,0,0,1,.164,2.411l-.164.011H18.361a1.212,1.212,0,0,1-1.2-1.047l-.011-.164V9.056A1.211,1.211,0,0,1,18.361,7.845Z" transform="translate(-1 -3)" fill="#fff"/>
    </g>
  </g>
</svg>
