<svg xmlns="http://www.w3.org/2000/svg" width="18" height="17.999" viewBox="0 0 18 17.999">
  <path id="Icon_awesome-phone-alt" data-name="Icon awesome-phone-alt" d="M17.486,12.72l-3.937-1.687a.844.844,0,0,0-.984.243l-1.744,2.13A13.031,13.031,0,0,1,4.591,7.176l2.13-1.744a.842.842,0,0,0,.243-.984L5.277.51A.849.849,0,0,0,4.31.022L.654.865A.844.844,0,0,0,0,1.688,16.31,16.31,0,0,0,16.312,18a.844.844,0,0,0,.823-.654l.844-3.656a.854.854,0,0,0-.493-.97Z" transform="translate(0 0)" fill="#b1b6c0"/>
</svg>
