<svg xmlns="http://www.w3.org/2000/svg" width="22" height="22" viewBox="0 0 22 22">
  <g id="Icon_ionic-ios-information-circle-outline" data-name="Icon ionic-ios-information-circle-outline" transform="translate(25.375 25.375) rotate(180)">
    <path id="Path_299" data-name="Path 299" d="M16.552,11.8a1.22,1.22,0,1,1,1.208,1.095A1.143,1.143,0,0,1,16.552,11.8Zm.082,1.954h2.251v7.887H16.634Z" transform="translate(-3.39 -1.996)" fill="red"/>
    <path id="Path_300" data-name="Path 300" d="M14.375,4.856A9.515,9.515,0,1,1,7.643,7.643a9.456,9.456,0,0,1,6.732-2.787m0-1.481a11,11,0,1,0,11,11,11,11,0,0,0-11-11Z" fill="red"/>
  </g>
</svg>
